<?xml version="1.0" encoding="utf-8"?>
<!-- Generator: Adobe Illustrator 21.1.0, SVG Export Plug-In . SVG Version: 6.00 Build 0)  -->
<svg version="1.1" id="Layer_1" xmlns="http://www.w3.org/2000/svg" xmlns:xlink="http://www.w3.org/1999/xlink" x="0px" y="0px"
	 viewBox="0 0 330.7 317.3" style="enable-background:new 0 0 330.7 317.3;" xml:space="preserve">
<style type="text/css">
	.st0{fill:#29A87A;stroke:#238C64;stroke-width:6;stroke-linecap:round;stroke-linejoin:round;stroke-miterlimit:10;}
	.st1{fill:#2FCC9A;stroke:#29AA7B;stroke-width:6;stroke-linecap:round;stroke-linejoin:round;stroke-miterlimit:10;}
	.st2{fill:#37E2A4;stroke:#29AA7B;stroke-width:6;stroke-linecap:round;stroke-linejoin:round;stroke-miterlimit:10;}
	.st3{fill:#FFDF97;stroke:#C1A46B;stroke-width:6;stroke-linecap:round;stroke-linejoin:round;stroke-miterlimit:10;}
	.st4{clip-path:url(#SVGID_2_);}
	.st5{fill:#FFFFFF;stroke:#999999;stroke-width:6;stroke-linecap:round;stroke-linejoin:round;stroke-miterlimit:10;}
	.st6{fill:#999999;stroke:#999999;stroke-width:6;stroke-linecap:round;stroke-linejoin:round;stroke-miterlimit:10;}
	.st7{fill:none;stroke:#999999;stroke-width:7;stroke-linecap:round;stroke-linejoin:round;stroke-miterlimit:10;}
	.st8{fill:none;stroke:#333333;stroke-width:7;stroke-linecap:round;stroke-linejoin:round;stroke-miterlimit:10;}
	.st9{fill:#C1A46B;}
	.st10{fill:#B3B3B3;}
	.st11{fill:#F7D845;stroke:#F7D845;stroke-width:4;stroke-linejoin:round;stroke-miterlimit:10;}
	.st12{fill:#E8C5A7;stroke:#E8C5A7;stroke-width:4;stroke-linecap:round;stroke-linejoin:round;stroke-miterlimit:10;}
	.st13{fill:#3D3D3D;stroke:#3D3D3D;stroke-width:4;stroke-miterlimit:10;}
	.st14{fill:#C1C1C1;}
	.st15{fill:#F5A837;}
	.st16{fill:#F36A9F;}
	
		.st17{clip-path:url(#SVGID_4_);fill:#8473FF;stroke:#675FD6;stroke-width:4;stroke-linecap:round;stroke-linejoin:round;stroke-miterlimit:10;}
	.st18{fill:#FFDF97;}
</style>
<rect x="26.2" y="236.1" class="st0" width="279" height="73.9"/>
<rect x="6.9" y="201.7" class="st1" width="317.6" height="34.5"/>
<polygon class="st2" points="47.5,133.5 6.9,201.7 324.5,201.7 283.9,132.7 273.9,132.7 57.5,133.5 "/>
<polygon class="st3" points="267.3,146.7 63.1,146.7 42.1,186.9 289.3,186.9 "/>
<g>
	<defs>
		<rect id="SVGID_1_" x="102.2" y="13.3" width="146.4" height="163.2"/>
	</defs>
	<clipPath id="SVGID_2_">
		<use xlink:href="#SVGID_1_"  style="overflow:visible;"/>
	</clipPath>
	<g class="st4">
		<g>
			<polygon class="st5" points="199.3,44.8 124.4,44.8 124.4,183.3 220.8,183.3 220.8,66.3 199.3,66.3 			"/>
			<polygon class="st6" points="199.3,66.3 220.8,66.3 199.3,44.8 			"/>
		</g>
		<line class="st7" x1="139.6" y1="58.6" x2="190.8" y2="58.6"/>
		<line class="st7" x1="139.6" y1="74.3" x2="207.8" y2="74.3"/>
		<line class="st7" x1="139.6" y1="90.1" x2="190.8" y2="90.1"/>
		<line class="st7" x1="139.6" y1="105.8" x2="199.3" y2="105.8"/>
		<line class="st7" x1="139.6" y1="121.6" x2="180.7" y2="121.6"/>
		<line class="st8" x1="139.6" y1="137.3" x2="157" y2="137.3"/>
	</g>
</g>
<circle class="st9" cx="70.1" cy="168.8" r="1.9"/>
<g>
	
		<rect x="266.3" y="35.1" transform="matrix(0.7189 0.6951 -0.6951 0.7189 108.7669 -189.5096)" class="st10" width="44.9" height="9.3"/>
	
		<rect x="224.9" y="28.3" transform="matrix(0.7193 0.6947 -0.6947 0.7193 127.5253 -147.0908)" class="st11" width="41.8" height="111.8"/>
	<g>
		<polygon class="st12" points="222,139 191.9,110 192,129.7 202.3,139.6 		"/>
		<polygon class="st13" points="202.3,139.6 192,129.7 192,140 		"/>
	</g>
	
		<rect x="271.7" y="21.6" transform="matrix(0.7189 0.6951 -0.6951 0.7189 95.5214 -183.627)" class="st14" width="6.2" height="9.3"/>
	
		<rect x="299.6" y="48.4" transform="matrix(0.7189 0.6951 -0.6951 0.7189 121.9862 -195.5794)" class="st14" width="6.4" height="9.3"/>
	
		<rect x="229.6" y="13.7" transform="matrix(0.7189 0.6951 -0.6951 0.7189 113.9432 -142.1481)" class="st15" width="6.2" height="112.3"/>
	
		<rect x="257.4" y="40.6" transform="matrix(0.7189 0.6951 -0.6951 0.7189 140.4341 -153.9133)" class="st15" width="6.2" height="112.3"/>
	<path class="st16" d="M321.9,26.2l-20.7-20c-3.2-3.1-8.2-3.2-11-0.2l0,0l-14.3,14.8l32.4,31.3l14.3-14.8l0,0
		C325.4,34.3,325.1,29.3,321.9,26.2z"/>
</g>
<g>
	<defs>
		<polyline id="SVGID_3_" points="-24.5,169.5 -24.5,-54.7 250,-54.7 250,169.5 		"/>
	</defs>
	<clipPath id="SVGID_4_">
		<use xlink:href="#SVGID_3_"  style="overflow:visible;"/>
	</clipPath>
	<path class="st17" d="M59.9,69.8c-3.9-1.2-47.2,22.1-48,25.8c-0.9,3,13.8,28.7,21.6,37.2c7.2,7.9,21.1,11.2,21.1,11.2l39.9,74.1
		l11.1-6l11.1-6l-39.9-74.1c0,0,4.8-12.1,2.2-23.8C76.7,97.2,63.8,71,59.9,69.8z M65.7,96.9c7.6,14.2,11.4,24.2-4.4,32.7
		c-16.9,9.1-24.6-5.4-30.2-16s-7.7-14.2-7.7-14.2L56,81.7C56,81.7,59.2,84.8,65.7,96.9z"/>
</g>
<path class="st18" d="M50.7,179.7c0,0,20.6-19.1,40.7-13c22,6.7,23.3-12,65.9-12c39.9,4,59.2,14.9,75.4,8.7
	c36.9-14,47.7,16.3,47.7,16.3l3,3.7l-232.7,1V179.7z"/>
</svg>
